<svg xmlns="http://www.w3.org/2000/svg" viewBox="0 0 161.67 51.85"><defs><style>.cls-1{fill:#ffcc04;stroke:#1c75bc;stroke-miterlimit:10;stroke-width:3px;}</style></defs><g id="Layer_2" data-name="Layer 2"><g id="Layer_1-2" data-name="Layer 1"><path class="cls-1" d="M15.87,39.53l22.33,1L38,49.81,7,48.26l-1.92-37L1.92,12,3,6.74,13.78,2.2Z"/><path class="cls-1" d="M46.54,19.26A6.91,6.91,0,0,1,49,21.44a9.61,9.61,0,0,1,1.38,3.09,14,14,0,0,1,.44,3.56,17.74,17.74,0,0,1-.24,3,16.68,16.68,0,0,1-.67,2.62,8.46,8.46,0,0,1-1,2A19.61,19.61,0,0,1,46,39.14a14.85,14.85,0,0,1-3.13,2.33,13.54,13.54,0,0,1-3.16,1.3,11.92,11.92,0,0,1-3.1.42,10.35,10.35,0,0,1-3.44-.57,9.08,9.08,0,0,1-2.78-1.48,10.39,10.39,0,0,1-3-4.24,15.15,15.15,0,0,1-1.07-5.66,11.61,11.61,0,0,1,3-8.28,19.14,19.14,0,0,1,5.24-4.07,12,12,0,0,1,8.73-1A14.61,14.61,0,0,1,46.54,19.26Zm-1.25,3.58a6,6,0,0,1-1.57,2.85,3.4,3.4,0,0,1-2.35,1.23,1.75,1.75,0,0,1-1-.3,2.14,2.14,0,0,1-.64-1.78,3.37,3.37,0,0,1,.65-1.94,4.23,4.23,0,0,1,2-1.51,7.19,7.19,0,0,0-2.71.53,7.53,7.53,0,0,0-2.25,1.37,7.15,7.15,0,0,0-1.5,1.9,4.4,4.4,0,0,0-.56,2.12,3.58,3.58,0,0,0,1.83,3.15,6.06,6.06,0,0,0,3.23,1.08,4,4,0,0,0,2.69-1,6.39,6.39,0,0,0,1.78-2.6,8.6,8.6,0,0,0,.62-3.14A7,7,0,0,0,45.29,22.84Z"/><path class="cls-1" d="M62.25,21.49l8.9-4,.17,11.9a15.81,15.81,0,0,1,.17,2.51,13.69,13.69,0,0,1-.08,1.83l.25,13.05-9.58.51V46a12.51,12.51,0,0,1-4.72,1,10.47,10.47,0,0,1-3.44-.55,9.34,9.34,0,0,1-2.78-1.49,10.44,10.44,0,0,1-3-4.25A15.09,15.09,0,0,1,47.12,35a11.57,11.57,0,0,1,3-8.28,19.65,19.65,0,0,1,5.27-4.07,12,12,0,0,1,5.54-1.38,11.89,11.89,0,0,1,1.19,0Zm-.17,3.75a7,7,0,0,0-2.31.74,7.75,7.75,0,0,0-1.94,1.41,6.19,6.19,0,0,0-1.27,1.78,4.35,4.35,0,0,0-.46,1.9,3.65,3.65,0,0,0,1.83,3.15,5.19,5.19,0,0,0,4.15,1V30.69a1.8,1.8,0,0,1-1-.3,2.43,2.43,0,0,1-.64-2A3.62,3.62,0,0,1,62.08,25.24Z"/><path class="cls-1" d="M91.68,9.36a26.54,26.54,0,0,1,1.67,4.14,26.54,26.54,0,0,1,1,4.27A28.63,28.63,0,0,1,94.64,22a25.34,25.34,0,0,1-1,7.11,21.11,21.11,0,0,1-2.84,6.1,15.68,15.68,0,0,1-4.48,4.38,13.68,13.68,0,0,1-5.83,2.06l-8.87,1.58-3-27.38c-.09,0-.44.38-1,1.13s-.94,1.13-1,1.13a3.24,3.24,0,0,1-.82-1.81c-.24-1-.57-2.54-1-4.65a24.84,24.84,0,0,0-1-3.83Q68.69,6.19,73,5.2a36.55,36.55,0,0,1,8.09-1Q89.17,4.21,91.68,9.36Zm-8.37,3.83a9.1,9.1,0,0,0-2.81-.62,4.76,4.76,0,0,0-2.79,1l1.07,19.38a12.68,12.68,0,0,0,4.8-3.08A7.62,7.62,0,0,0,85,27.31,10.32,10.32,0,0,0,85.47,25a34.56,34.56,0,0,0,.23-4.13,20.87,20.87,0,0,0-.54-5.1C84.79,14.34,84.18,13.49,83.31,13.19Z"/><path class="cls-1" d="M106.16,47.19l-9.6.53L96,24.88l-3.15.7,1-5.24,10.81-4.53Zm-7-44.28a6.14,6.14,0,0,1,2.61.5,6,6,0,0,1,1.8,1.21,5,5,0,0,1,1,1.25,3,3,0,0,1,.25,1.25,5.44,5.44,0,0,1-.44,2.12,7,7,0,0,1-1.09,1.84,2.43,2.43,0,0,1-1.21.9,12.58,12.58,0,0,1-1.66.17,5.79,5.79,0,0,1-2.45-.49,3.92,3.92,0,0,1-1.66-1.43A5,5,0,0,1,95.51,8a6.81,6.81,0,0,1,.89-3.39A3.3,3.3,0,0,1,99.17,2.91Z"/><path class="cls-1" d="M117.35,19.67q2.46-.45,4.2-.63a14.28,14.28,0,0,1,3.28,0,7.2,7.2,0,0,1,3.5,1.42,16.13,16.13,0,0,1,3.54,4.24,12.32,12.32,0,0,1,2,5.18,33.35,33.35,0,0,1,0,8,34.53,34.53,0,0,1-.75,3.69c-.34,1.28-.81,2.91-1.42,4.91l-8.89-.71c.13-.7.28-1.71.47-3A38.87,38.87,0,0,0,123,28.4c-.39-1.53-.86-2.34-1.42-2.42q-1.09-.15-2.85,2.7a9.67,9.67,0,0,0-.76,1.61,17.14,17.14,0,0,0-.59,2.09c-.17.78-.34,1.7-.48,2.77-.31,2.17-.57,4.93-.78,8.3l-10.52-.25c0-1.26,0-2.51,0-3.75s.08-2.4.15-3.46.19-2.19.36-3.4c.07-.52.21-1.26.4-2.24L107.91,18l8.44.1Z"/><path class="cls-1" d="M147.36,29.25l-1.62-.6,2.07-5.73,12.3,3.73L158.9,50.33l-10.85-.15q.45-1.78,1.28-5.09c.55-2.21.9-3.65,1.06-4.33q-1.33.77-5.52,1.05a15.64,15.64,0,0,1-7.17-1.05,11.69,11.69,0,0,1-5.35-4.87,25.23,25.23,0,0,1-3-9.81c-.06-.41-.11-1-.17-1.87a24.47,24.47,0,0,1,.33-6.08,15.39,15.39,0,0,1,2.06-5.38,12.27,12.27,0,0,1,4.34-4.1,16.48,16.48,0,0,1,7-2,22.87,22.87,0,0,1,5.48.29,21.24,21.24,0,0,1,5,1.48,14.46,14.46,0,0,1,4,2.57,8.06,8.06,0,0,1,2.33,3.43l-9.11,6.86q-1.11-2.31-6.55-2c-.82.06-1.62.7-2.41,1.93a6.6,6.6,0,0,0-1,4.06,7.31,7.31,0,0,0,1.21,3.15,3.57,3.57,0,0,0,3.28,1.44,3.26,3.26,0,0,0,.66-.16l.84-.27Z"/></g></g></svg>